<svg xmlns="http://www.w3.org/2000/svg" viewBox="0 0 58.52 99.99"><defs><style>.cls-1{fill:#fed300;}.cls-2{fill:#fe5100;}.cls-3{fill:#fe5a00;}.cls-4{fill:#fecb00;}.cls-5{fill:#fe9000;}.cls-6{fill:#fea000;}.cls-7{fill:#fea900;}.cls-8{fill:#feb300;}.cls-9{fill:#fe8200;}.cls-10{fill:#febf00;}.cls-11{fill:#fe7e00;}.cls-12{fill:#fe6700;}.cls-13{fill:#fe6f00;}.cls-14{fill:#fe7500;}</style></defs><g id="Layer_2" data-name="Layer 2"><g id="Layer_1-2" data-name="Layer 1"><path class="cls-1" d="M43.28,1.69c-.9-.38-8-3.22-15.29-.57A19.43,19.43,0,0,0,25.5,2.25a30.54,30.54,0,0,0-9.09,7.22A33.31,33.31,0,0,0,9.82,20.3a2.52,2.52,0,0,0-.21.54c.4.72,1.12.6,1.76.6H22l2.45-.93a6.88,6.88,0,0,1-.1-3.72c.84-3.21,4.18-5.7,8.5-6.51a28.59,28.59,0,0,1,8.74.05,27.71,27.71,0,0,1,11.29,4.52,11.05,11.05,0,0,0-.73-5.74C50.22,4.58,45.67,2.69,43.28,1.69Z"/><g id="Layer_2-2" data-name="Layer 2"><g id="Layer_1-2-2" data-name="Layer 1-2"><path class="cls-2" d="M30.59,99.57A15.75,15.75,0,0,0,32.72,99a34.54,34.54,0,0,0,3.63-1.31c.88-.37,2.09-1,4.51-2.1A29.39,29.39,0,0,0,45.21,93a2.29,2.29,0,0,1,.24-.18c.21-.14.35-.18.34-.21s-.08,0-.46,0c-1.22.08-2.45,0-3.68.08h-.58c-6.29,0-12.56,0-18.85,0-4.14,0-8.28,0-12.43.05a6.78,6.78,0,0,1-1.42-.09c-.23,0-.23.12-.1.25s.4.41.63.59a31.35,31.35,0,0,0,5.2,3.59l.23.14.08.05a.58.58,0,0,1,.15.11,18.41,18.41,0,0,0,2.06,1c.92.42,1.89.76,2.85,1.1a3.74,3.74,0,0,1,.48.12,34.74,34.74,0,0,0,4.83.41A33.81,33.81,0,0,0,30.59,99.57Z"/><path class="cls-3" d="M8.24,92.75a30.07,30.07,0,0,0,4.35.11c1.36,0,2.72,0,4.08,0,8.3-.08,16.59,0,24.88-.07,1.1,0,2.2,0,3.29-.05a5,5,0,0,1,.67,0,.43.43,0,0,0,.4-.15,31.68,31.68,0,0,0,3.35-3,38.82,38.82,0,0,0,3.86-4.8c.09-.14.38-.33,0-.48-2.71,0-5.42,0-8.13,0-7,.12-14,0-21,.06s-13.78,0-20.67,0a8.43,8.43,0,0,0-.87,0c-.28.06-.2.22-.14.36.21.42.42.84.66,1.24A29.71,29.71,0,0,0,6.31,90.9c.54.59,1.1,1.17,1.69,1.72C8.05,92.71,8.11,92.79,8.24,92.75Z"/><path class="cls-4" d="M29.16,27.83l-.07-.12L29,27.66A31.19,31.19,0,0,1,25.61,23c-.14-.25-.26-.51-.39-.76a11,11,0,0,1-.88-1.91c0-.08,0-.17-.12-.24a1.32,1.32,0,0,1-.62.12H10.35a2.33,2.33,0,0,1-.53-.06,6.47,6.47,0,0,0-.29,1.13,18.14,18.14,0,0,0-.37,2.42c-.07.61,0,1.21-.06,1.83a15.68,15.68,0,0,0,.22,2.64.81.81,0,0,0,.51.09c3.07,0,6.13.06,9.2,0s6.27,0,9.4,0a4.1,4.1,0,0,0,.5,0C29.16,28.12,29.29,28,29.16,27.83Z"/><path class="cls-5" d="M26.5,52.16c.59,1,1.17,1.94,1.75,2.91a.87.87,0,0,1,.18.36c0,.29.21.51.33.76a14.46,14.46,0,0,1,1.09,2.37,1.11,1.11,0,0,1,.07.26,7.94,7.94,0,0,1,.29,2.56.31.31,0,0,0,.13.32,1.51,1.51,0,0,0,.7,0,14.34,14.34,0,0,1,1.46-.05c6.24,0,12.47,0,18.69,0,1.8,0,3.6,0,5.4,0a1,1,0,0,0,.45-.07c.18-.13.12-.28.07-.44-.32-1-.69-1.9-1.1-2.83-.52-1.09-1.07-2.16-1.66-3.22-.53-.8-1-1.62-1.51-2.42-.1-.16-.2-.32-.31-.47a.43.43,0,0,0-.38-.19c-.94.07-1.88.09-2.82.08-6,0-11.92,0-17.88,0-1.42,0-2.84,0-4.26,0A1.49,1.49,0,0,0,26.5,52.16Z"/><path class="cls-6" d="M26.5,52.16a29.58,29.58,0,0,0,4.21,0H51a8.55,8.55,0,0,0,1.34-.11c.09-.1,0-.19,0-.27s-.25-.39-.4-.58c-1-1.42-2.13-2.82-3.3-4.18l-.29-.3a.26.26,0,0,0-.34-.06.71.71,0,0,1-.57.19c-3.21.09-6.44,0-9.67.06H25.94c-.76,0-1.51.09-2.26.06a2.51,2.51,0,0,1-.87-.1.24.24,0,0,0-.27,0c.31.51.77.94,1.12,1.43s.83,1.1,1.25,1.65C25.52,50.67,26,51.44,26.5,52.16Z"/><path class="cls-5" d="M15.55,54.6c-.8.38-1.65.69-2.42,1.11a25.42,25.42,0,0,0-2.85,1.73,1.15,1.15,0,0,1-.25.12c-.61.5-1.24,1-1.82,1.49a27.8,27.8,0,0,0-3,3.06.42.42,0,0,0-.06.14c.12.18.34.15.54.15h9.71a.92.92,0,0,0,.61-.1.55.55,0,0,0,0-.47A9.39,9.39,0,0,1,16,58.57a7.6,7.6,0,0,1,1.06-3c.08-.13.22-.26.17-.43a5.69,5.69,0,0,1,1.29-1.4,19.08,19.08,0,0,0-2.38.68c-.09,0-.15,0-.21.07A.52.52,0,0,1,15.55,54.6Z"/><path class="cls-7" d="M47.51,45.88a14.52,14.52,0,0,1-1.27-1.34c-.74-.82-1.51-1.62-2.29-2.42a1.84,1.84,0,0,1-.17-.22c-.44-.37-.81-.79-1.22-1.18a3.88,3.88,0,0,0-.78-.73,6.74,6.74,0,0,1-1.49.08c-3.48,0-7,0-10.45,0-4,.06-8.08,0-12.12,0-.3,0-.6,0-.9,0a.39.39,0,0,0-.33.06l1.28,1.42c1.48,1.56,2.9,3.15,4.29,4.75a3.4,3.4,0,0,1,.23.3l.27.24a4.92,4.92,0,0,0,2.09.17c6.91-.13,13.83,0,20.75-.07.78,0,1.57,0,2.35,0,.14,0,.29,0,.21-.17s.06-.11.12-.13C48,46.36,47.63,46.16,47.51,45.88Z"/><path class="cls-8" d="M16.49,40.17c3.9.14,7.8.1,11.7,0,4.36-.06,8.71,0,13.07,0a.57.57,0,0,0,.52-.18,5.61,5.61,0,0,0-.92-1c-.78-.78-1.59-1.54-2.39-2.3a.79.79,0,0,0-.29-.37c-.48-.42-1-.85-1.43-1.29-.11-.11-.24-.2-.42-.07a1.45,1.45,0,0,1-.66.09c-2.63,0-5.22-.05-7.83,0-4.77.1-9.54,0-14.31,0a3.54,3.54,0,0,1-.92-.06.38.38,0,0,0-.28,0l.77,1.07c1,1.29,2.05,2.53,3.17,3.75Z"/><path class="cls-9" d="M16,62.25c-.1.1-.24.06-.37.06h-10a.82.82,0,0,1-.41-.06c-.23.12-.26.38-.5.49-.55.77-1.17,1.52-1.65,2.33a12.16,12.16,0,0,0-.65,1.16c.06.12.19.14.32.15a1.82,1.82,0,0,0,.33,0H17.39a3.15,3.15,0,0,0,1.22-.15c.17-.21,0-.31-.17-.42A6.42,6.42,0,0,1,16.84,64a10.48,10.48,0,0,1-.58-1.28C16.17,62.55,16.25,62.32,16,62.25Z"/><path class="cls-10" d="M12.34,35.13a4.93,4.93,0,0,0,1.58.12c4.28,0,8.55,0,12.82,0,3.1,0,6.2,0,9.3,0,.2,0,.43,0,.43-.24s0-.16-.12-.23c-1.39-1.37-2.88-2.66-4.28-4l-1.14-1.14a.52.52,0,0,0-.27-.18c-.48-.47-.94-.95-1.37-1.45l-.13-.1c.05.27-.18.24-.38.24-3,0-5.94-.05-8.91,0-3.5.08-7,0-10.55.05.09.6.28,1.18.42,1.78A21.39,21.39,0,0,0,12.34,35.13Z"/><path class="cls-11" d="M18.62,66.1a1.84,1.84,0,0,1-1.11.17c-2.8,0-5.61,0-8.41,0H2.8a.87.87,0,0,1-.45-.06,7.25,7.25,0,0,0-.65,1.27c-.23.51-.43,1-.64,1.53a1.74,1.74,0,0,0-.32.69.16.16,0,0,0,.09.2,1.34,1.34,0,0,0,.63.09c5.84,0,11.7.06,17.55,0,6.86-.08,13.72,0,20.59-.06,6.08-.08,12.15,0,18.23,0a1.19,1.19,0,0,0,.56-.07,1.1,1.1,0,0,0,0-1l-.16-2.42a.38.38,0,0,0-.06-.13,1.12,1.12,0,0,0-.65-.1H42.94c-1,0-2,0-3,0-4,.12-7.95,0-11.92.07a.61.61,0,0,0-.49.2,6.77,6.77,0,0,1-4,1.39A7.07,7.07,0,0,1,20.17,67a10,10,0,0,1-1.1-.66A.58.58,0,0,0,18.62,66.1Z"/><path class="cls-12" d="M.29,78.51a13.47,13.47,0,0,0,.43,2.06,23.57,23.57,0,0,0,1.37,3.82l.12.17a2.3,2.3,0,0,0,.74,0c6.65,0,13.3.06,20,0,7-.07,14,0,21-.06,2.91,0,5.83,0,8.75,0,.22,0,.43,0,.64-.06a.47.47,0,0,0,.2-.24,37.58,37.58,0,0,0,2.92-5.44c0-.12.08-.25.11-.37a.45.45,0,0,0-.28-.06c-4.69,0-9.38,0-14.07,0-7,.09-14,0-21,.05-6.71.09-13.43,0-20.12.06A1.09,1.09,0,0,0,.29,78.51Z"/><path class="cls-13" d="M.29,78.51c6.63,0,13.25,0,19.87,0,7-.08,13.91,0,20.87-.07,5-.06,10,0,15,0,.17,0,.32,0,.49,0a19.36,19.36,0,0,0,1.06-3l.08-.28c0-.1,0-.2.05-.3a.85.85,0,0,0-.5-.1c-.68,0-1.34.06-2,.06-6.42,0-12.82,0-19.23,0-7,.07-14,0-21,.06-4.75.06-9.5,0-14.25,0A1,1,0,0,0,0,75a14.27,14.27,0,0,0,.26,3.32C.28,78.35.28,78.43.29,78.51Z"/><path class="cls-14" d="M0,75c4.65,0,9.29,0,13.93,0,7-.09,13.92,0,20.87-.06s13.89,0,20.83-.06c.68,0,1.36,0,2,0a16.18,16.18,0,0,0,.58-3.37l.12-1.62c-5.78,0-11.56-.05-17.34,0-7,.08-14.1,0-21.15.06-6.19.08-12.39,0-18.58,0a1.81,1.81,0,0,1-.52-.07,20.25,20.25,0,0,0-.59,2.76,12.58,12.58,0,0,0-.15,1.94.86.86,0,0,1-.06.23S0,74.89,0,75Z"/><path class="cls-9" d="M27.94,66.22c.11.1.25.06.37.06,3.43,0,6.85,0,10.27,0,6.54-.1,13.07,0,19.6,0a12.56,12.56,0,0,0-.39-2.43l0-.24-.51-1.79a.55.55,0,0,0-.13-.29.82.82,0,0,1-.38.06c-3,0-6.06.07-9.09.06-5.28,0-10.56,0-15.84,0-.49,0-1,.06-1.49.06-.15.12-.12.28-.14.42-.06.3-.14.6-.22.9a6.7,6.7,0,0,1-1.87,3C28,66,27.91,66.12,27.94,66.22Z"/></g></g></g></g></svg>